#!OML:ASF H:\Terrain\Walking\May29\JustinRory\Justin.ASF
:FULLY-SPECIFIED
:DEGREES
463
root 9.25956 13.6999 24.2655 -238.029 -65.3246 238.304
lowerback 28.7694 2.0024 4.141
upperback 9.35443 2.82912 4.26445
thorax -5.33834 0.829111 1.47206
lowerneck -4.50423 -14.4502 -19.8771
upperneck 21.3899 -20.9533 12.3148
head 11.1023 -10.3753 4.71169
rclavicle 3.89618e-014 4.6118e-014
rhumerus -14.1212 -53.8135 -18.2927
rradius 25.9956
rwrist -52.5837
rhand -7.2392 -9.0664
rfingers 7.12502
rthumb 18.6408 -38.1933
lclavicle 3.89618e-014 4.6118e-014
lhumerus -40.2206 21.5758 37.6816
lradius 56.2864
lwrist -2.10312
lhand -7.92183 29.6129
lfingers 7.12502
lthumb 17.9841 58.8015
rfemur -22.4569 -4.51974 5.28572
rtibia 53.4698
rfoot -12.7648 -8.19066
rtoes -38.4596
lfemur -73.3855 21.2156 -13.9563
ltibia 91.1573
lfoot -1.44729 -20.7705
ltoes 25.5089
464
root 9.21289 13.6586 24.316 -235.928 -64.8943 235.993
lowerback 28.5976 2.33309 3.75499
upperback 9.27441 3.15511 4.3299
thorax -5.3776 0.985619 1.66208
lowerneck -4.58161 -14.4177 -20.0335
upperneck 21.3635 -20.865 12.277
head 11.1053 -10.3467 4.73041
rclavicle -2.06736e-014 -4.6118e-014
rhumerus -13.5441 -55.2522 -18.4411
rradius 25.7091
rwrist -51.7987
rhand -6.71007 -9.01496
rfingers 7.12502
rthumb 19.1497 -38.0922
lclavicle -2.06736e-014 -4.6118e-014
lhumerus -40.4735 21.7584 37.829
lradius 55.5731
lwrist -2.54198
lhand -7.97494 29.2728
lfingers 7.12502
lthumb 17.933 58.466
rfemur -22.664 -4.1268 4.76808
rtibia 53.465
rfoot -13.055 -7.28209
rtoes -36.1144
lfemur -73.5115 21.7196 -14.5176
ltibia 91.1905
lfoot -1.97794 -19.5133
ltoes 23.488
465
root 9.16427 13.609 24.3713 -233.67 -64.64 233.61
lowerback 28.3237 2.52613 3.3369
upperback 9.09781 3.30816 4.2119
thorax -5.46918 1.07133 1.7233
lowerneck -4.5083 -14.3293 -20.0615
upperneck 21.3797 -20.6973 12.0307
head 11.039 -10.2992 4.68571
rclavicle -2.3059e-014 3.49861e-014
rhumerus -13.1287 -55.0705 -18.8151
rradius 25.6507
rwrist -51.9363
rhand -5.92431 -9.12172
rfingers 7.12502
rthumb 19.9051 -38.1223
lclavicle -2.3059e-014 3.49861e-014
lhumerus -40.9065 21.6691 37.8156
lradius 55.0146
lwrist -2.46434
lhand -8.417 29.5131
lfingers 7.12502
lthumb 17.5076 58.7448
rfemur -22.9975 -3.76898 3.85864
rtibia 53.4286
rfoot -13.1738 -5.94367
rtoes -33.1492
lfemur -73.7289 21.8642 -15.1921
ltibia 91.4686
lfoot -1.87069 -18.5236
ltoes 23.214
466
root 9.1132 13.5632 24.4317 -232.129 -64.2727 231.785
lowerback 28.244 2.57019 3.36526
upperback 8.93379 3.3838 4.00338
thorax -5.60121 1.11826 1.45172
lowerneck -4.46965 -14.2996 -20.0557
upperneck 21.5162 -20.6268 11.768
head 11.0363 -10.2938 4.60781
rclavicle 6.44062e-014 5.08889e-014
rhumerus -13.3433 -53.4819 -19.0948
rradius 26.0966
rwrist -53.4501
rhand -5.66549 -9.24935
rfingers 7.12502
rthumb 20.1539 -38.2239
lclavicle 6.44062e-014 5.08889e-014
lhumerus -41.2412 21.3887 37.7129
lradius 54.6008
lwrist -2.19493
lhand -8.88799 29.969
lfingers 7.12502
lthumb 17.0543 59.2404
rfemur -23.0548 -3.64909 3.3001
rtibia 53.2539
rfoot -12.9238 -5.31547
rtoes -33.8742
lfemur -73.7055 21.7896 -15.3843
ltibia 91.9901
lfoot -1.14912 -17.5973
ltoes 25.3296
467
root 9.06196 13.5275 24.4823 -231.334 -63.5227 230.263
lowerback 28.5192 2.71061 3.62275
upperback 8.97466 3.61047 3.88184
thorax -5.66006 1.21756 1.09371
lowerneck -4.70504 -14.4057 -19.7255
upperneck 21.7509 -20.7492 11.5029
head 11.1166 -10.3384 4.42644
rclavicle -3.57812e-014 -3.18055e-014
rhumerus -13.222 -55.0408 -19.3604
rradius 25.883
rwrist -52.8182
rhand -5.88007 -9.16216
rfingers 7.12502
rthumb 19.9476 -38.1584
lclavicle -3.57812e-014 -3.18055e-014
lhumerus -41.3323 21.2554 37.4007
lradius 54.078
lwrist -2.33094
lhand -8.78621 29.9721
lfingers 7.12502
lthumb 17.1522 59.2351
rfemur -22.5717 -3.13357 3.25569
rtibia 52.905
rfoot -12.5347 -5.06391
rtoes -35.7723
lfemur -73.1445 22.1206 -14.9056
ltibia 92.7528
lfoot -0.802729 -17.1368
ltoes 26.3914
468
root 9.00907 13.4885 24.5313 -230.936 -62.799 228.997
lowerback 28.8499 2.79763 3.81168
upperback 9.12502 3.73631 3.86229
thorax -5.63089 1.25997 0.919761
lowerneck -4.75521 -14.4021 -19.4155
upperneck 21.5399 -20.6871 11.3043
head 10.9732 -10.3021 4.32539
rclavicle -4.21423e-014 -3.18055e-015
rhumerus -12.4059 -57.7986 -19.9978
rradius 25.3579
rwrist -51.5535
rhand -5.82342 -9.22489
rfingers 7.12502
rthumb 20.0021 -38.2154
lclavicle -4.21423e-014 -3.18055e-015
lhumerus -41.6388 21.492 36.8986
lradius 53.5613
lwrist -2.72086
lhand -8.3502 29.5657
lfingers 7.12502
lthumb 17.5719 58.7916
rfemur -21.7274 -2.38038 3.11377
rtibia 52.4366
rfoot -12.5454 -4.33879
rtoes -34.7177
lfemur -72.4223 22.4037 -14.2953
ltibia 93.6789
lfoot -0.721041 -16.9182
ltoes 25.5692
469
root 8.96124 13.4319 24.5793 -231.273 -61.6521 229.032
lowerback 28.8555 2.6829 4.61774
upperback 9.16281 3.79652 4.12289
thorax -5.54538 1.27655 0.732343
lowerneck -4.62651 -14.2578 -19.5816
upperneck 21.0173 -20.4336 11.4343
head 10.7473 -10.1934 4.45558
rclavicle -4.85035e-014 -3.18055e-014
rhumerus -11.7662 -57.1773 -20.7276
rradius 25.7353
rwrist -53.6719
rhand -5.66157 -9.25868
rfingers 7.12502
rthumb 20.1577 -38.2329
lclavicle -4.85035e-014 -3.18055e-014
lhumerus -42.1152 21.7711 36.6624
lradius 53.1935
lwrist -2.78041
lhand -8.44185 29.5637
lfingers 7.12502
lthumb 17.4836 58.7975
rfemur -21.3005 -1.83105 3.7725
rtibia 51.9641
rfoot -12.7328 -3.77977
rtoes -33.8881
lfemur -72.3817 22.5475 -12.9811
ltibia 94.6774
lfoot -0.591301 -17.1219
ltoes 23.9898
470
root 8.91911 13.3693 24.6141 -232.434 -59.6886 230.399
lowerback 28.6519 2.45348 6.45602
upperback 9.07361 3.99655 4.51816
thorax -5.41927 1.36563 0.0721073
lowerneck -4.73502 -14.2444 -19.6742
upperneck 20.971 -20.4714 11.7742
head 10.8091 -10.1885 4.57171
rclavicle 3.49861e-014 1.43125e-014
rhumerus -11.3924 -57.9722 -21.1657
rradius 25.7441
rwrist -54.1778
rhand -4.9299 -9.0495
rfingers 7.12502
rthumb 20.8608 -37.948
lclavicle 3.49861e-014 1.43125e-014
lhumerus -42.2804 21.7861 36.4031
lradius 52.8083
lwrist -2.71267
lhand -8.67979 29.7817
lfingers 7.12502
lthumb 17.2546 59.0357
rfemur -21.2843 -1.30582 5.77642
rtibia 51.5071
rfoot -12.7246 -3.81074
rtoes -35.3835
lfemur -72.8676 23.0037 -10.5435
ltibia 95.6469
lfoot -0.539117 -17.9585
ltoes 22.4727
471
root 8.8719 13.3289 24.6525 -231.327 -60.0292 228.655
lowerback 28.7804 2.55816 5.71094
upperback 9.03221 3.93383 4.1462
thorax -5.56527 1.34184 0.0960702
lowerneck -4.94447 -14.3405 -19.5548
upperneck 21.4923 -20.7191 11.8746
head 11.0835 -10.2833 4.52389
rclavicle -3.26007e-014 4.29375e-014
rhumerus -10.9397 -61.6471 -21.4859
rradius 25.0528
rwrist -51.4311
rhand -3.44678 -9.31024
rfingers 7.12502
rthumb 22.2851 -38.0453
lclavicle -3.26007e-014 4.29375e-014
lhumerus -42.5267 21.6059 35.856
lradius 52.544
lwrist -2.707
lhand -8.64847 29.8209
lfingers 7.12502
lthumb 17.2848 59.0722
rfemur -20.7627 -1.39442 4.62139
rtibia 51.1631
rfoot -12.4973 -3.4595
rtoes -37.9174
lfemur -72.3639 22.5029 -10.9843
ltibia 96.265
lfoot -1.16464 -17.9308
ltoes 19.9115
